<mxfile host="app.diagrams.net" modified="2023-12-12T07:33:20.022Z" agent="Mozilla/5.0 (Windows NT 10.0; Win64; x64) AppleWebKit/537.36 (KHTML, like Gecko) Chrome/119.0.0.0 Safari/537.36 Edg/119.0.0.0" etag="pojL5VC6WmEu6xM5aR5o" version="22.1.7" type="github">
  <diagram name="Page-1" id="bfe91b75-5d2c-26a0-9c1d-138518896778">
    <mxGraphModel dx="2056" dy="1146" grid="1" gridSize="10" guides="1" tooltips="1" connect="1" arrows="1" fold="1" page="1" pageScale="1" pageWidth="1100" pageHeight="850" background="none" math="0" shadow="0">
      <root>
        <mxCell id="0" />
        <mxCell id="1" parent="0" />
        <mxCell id="HTmOLv7qJEctIhOdHriU-25" value="" style="rounded=0;whiteSpace=wrap;html=1;fillColor=none;" vertex="1" parent="1">
          <mxGeometry x="302" y="320" width="818" height="130" as="geometry" />
        </mxCell>
        <mxCell id="7c3789c024ecab99-78" value="vcu idc (QNX)" style="rounded=1;whiteSpace=wrap;html=1;shadow=0;comic=0;strokeColor=#036897;strokeWidth=2;fillColor=none;fontFamily=Verdana;fontSize=28;fontColor=#6881B3;align=center;arcSize=11;verticalAlign=top;" parent="1" vertex="1">
          <mxGeometry x="150" y="50" width="1065" height="420" as="geometry" />
        </mxCell>
        <mxCell id="7c3789c024ecab99-10" value="" style="fontColor=#0066CC;verticalAlign=top;verticalLabelPosition=bottom;labelPosition=center;align=center;html=1;fillColor=#CCCCCC;strokeColor=#6881B3;gradientColor=none;gradientDirection=north;strokeWidth=2;shape=mxgraph.networks.router;rounded=0;shadow=0;comic=0;" parent="1" vertex="1">
          <mxGeometry x="1430" y="755" width="100" height="30" as="geometry" />
        </mxCell>
        <mxCell id="7c3789c024ecab99-1" value="" style="fontColor=#0066CC;verticalAlign=top;verticalLabelPosition=bottom;labelPosition=center;align=center;html=1;fillColor=#CCCCCC;strokeColor=#6881B3;gradientColor=none;gradientDirection=north;strokeWidth=2;shape=mxgraph.networks.pc;rounded=0;shadow=0;comic=0;" parent="1" vertex="1">
          <mxGeometry x="610.0000000000002" y="100" width="100" height="70" as="geometry" />
        </mxCell>
        <mxCell id="7c3789c024ecab99-54" value="" style="fontColor=#0066CC;verticalAlign=top;verticalLabelPosition=bottom;labelPosition=center;align=center;html=1;fillColor=#CCCCCC;strokeColor=#6881B3;gradientColor=none;gradientDirection=north;strokeWidth=2;shape=mxgraph.networks.router;rounded=0;shadow=0;comic=0;" parent="1" vertex="1">
          <mxGeometry x="1430" y="245" width="100" height="30" as="geometry" />
        </mxCell>
        <mxCell id="HTmOLv7qJEctIhOdHriU-1" value="linux pc" style="rounded=1;whiteSpace=wrap;html=1;shadow=0;comic=0;strokeColor=#036897;strokeWidth=2;fillColor=none;fontFamily=Verdana;fontSize=28;fontColor=#6881B3;align=center;arcSize=11;verticalAlign=top;" vertex="1" parent="1">
          <mxGeometry x="150" y="560" width="1065" height="420" as="geometry" />
        </mxCell>
        <mxCell id="7c3789c024ecab99-8" value="" style="fontColor=#0066CC;verticalAlign=top;verticalLabelPosition=bottom;labelPosition=center;align=center;html=1;fillColor=#CCCCCC;strokeColor=#6881B3;gradientColor=none;gradientDirection=north;strokeWidth=2;shape=mxgraph.networks.firewall;rounded=0;shadow=0;comic=0;" parent="1" vertex="1">
          <mxGeometry x="1280" y="210" width="100" height="100" as="geometry" />
        </mxCell>
        <mxCell id="HTmOLv7qJEctIhOdHriU-3" value="" style="image;sketch=0;aspect=fixed;html=1;points=[];align=center;fontSize=12;image=img/lib/mscae/VM_Linux.svg;" vertex="1" parent="1">
          <mxGeometry x="620" y="630" width="97.83" height="90" as="geometry" />
        </mxCell>
        <mxCell id="HTmOLv7qJEctIhOdHriU-16" value="&lt;font style=&quot;font-size: 24px;&quot;&gt;vlan4:&amp;nbsp;&lt;br style=&quot;border-color: var(--border-color);&quot;&gt;ip: 172.17.4.115&amp;nbsp; &amp;nbsp; &amp;nbsp;mac:&amp;nbsp;02:04:00:00:0a:00&lt;/font&gt;" style="rounded=1;whiteSpace=wrap;html=1;" vertex="1" parent="1">
          <mxGeometry x="300" y="779" width="312" height="93" as="geometry" />
        </mxCell>
        <mxCell id="HTmOLv7qJEctIhOdHriU-17" value="&lt;font style=&quot;font-size: 24px;&quot;&gt;vlan44:&amp;nbsp;&lt;br style=&quot;border-color: var(--border-color);&quot;&gt;ip: 172.17.4.120&amp;nbsp; &amp;nbsp; &amp;nbsp;mac:&amp;nbsp;a0:36:9f:30:06:0e&lt;/font&gt;" style="rounded=1;whiteSpace=wrap;html=1;" vertex="1" parent="1">
          <mxGeometry x="740" y="779" width="312" height="93" as="geometry" />
        </mxCell>
        <mxCell id="HTmOLv7qJEctIhOdHriU-21" value="&lt;font style=&quot;font-size: 24px;&quot;&gt;vlan4:&amp;nbsp;&lt;br style=&quot;border-color: var(--border-color);&quot;&gt;ip: 172.17.4.101&amp;nbsp; &amp;nbsp; &amp;nbsp;mac:&amp;nbsp;02:04:00:00:01:02&lt;/font&gt;" style="rounded=1;whiteSpace=wrap;html=1;" vertex="1" parent="1">
          <mxGeometry x="450" y="338.5" width="312" height="93" as="geometry" />
        </mxCell>
        <mxCell id="HTmOLv7qJEctIhOdHriU-22" value="&lt;font style=&quot;font-size: 24px;&quot;&gt;vlan46:&amp;nbsp;&lt;br style=&quot;border-color: var(--border-color);&quot;&gt;ip: 172.17.46.101&amp;nbsp; &amp;nbsp; &amp;nbsp;mac:&amp;nbsp;02:04:00:00:01:02&lt;/font&gt;" style="rounded=1;whiteSpace=wrap;html=1;" vertex="1" parent="1">
          <mxGeometry x="790" y="338.5" width="312" height="93" as="geometry" />
        </mxCell>
        <mxCell id="HTmOLv7qJEctIhOdHriU-23" value="&lt;font style=&quot;font-size: 24px;&quot;&gt;emac0:&amp;nbsp;&lt;br style=&quot;border-color: var(--border-color);&quot;&gt;ip:&amp;nbsp; &amp;nbsp; &amp;nbsp; mac:&amp;nbsp;02:04:00:00:01:02&lt;/font&gt;" style="rounded=1;whiteSpace=wrap;html=1;" vertex="1" parent="1">
          <mxGeometry x="450" y="213.5" width="312" height="93" as="geometry" />
        </mxCell>
        <mxCell id="HTmOLv7qJEctIhOdHriU-26" value="&lt;font style=&quot;font-size: 24px;&quot;&gt;&lt;b&gt;virtual lan&lt;/b&gt;&lt;/font&gt;" style="text;html=1;strokeColor=none;fillColor=none;align=center;verticalAlign=middle;whiteSpace=wrap;rounded=0;" vertex="1" parent="1">
          <mxGeometry x="310" y="338.5" width="120" height="30" as="geometry" />
        </mxCell>
        <mxCell id="HTmOLv7qJEctIhOdHriU-35" value="" style="endArrow=classic;startArrow=classic;html=1;rounded=0;exitX=0.5;exitY=0;exitDx=0;exitDy=0;exitPerimeter=0;entryX=0.5;entryY=1;entryDx=0;entryDy=0;entryPerimeter=0;" edge="1" parent="1" source="7c3789c024ecab99-10" target="7c3789c024ecab99-54">
          <mxGeometry width="50" height="50" relative="1" as="geometry">
            <mxPoint x="740" y="450" as="sourcePoint" />
            <mxPoint x="790" y="400" as="targetPoint" />
          </mxGeometry>
        </mxCell>
        <mxCell id="HTmOLv7qJEctIhOdHriU-37" value="" style="endArrow=classic;startArrow=classic;html=1;rounded=0;entryX=0;entryY=0.5;entryDx=0;entryDy=0;entryPerimeter=0;exitX=1;exitY=0.5;exitDx=0;exitDy=0;" edge="1" parent="1" source="HTmOLv7qJEctIhOdHriU-1" target="7c3789c024ecab99-10">
          <mxGeometry width="50" height="50" relative="1" as="geometry">
            <mxPoint x="1300" y="820" as="sourcePoint" />
            <mxPoint x="1350" y="770" as="targetPoint" />
          </mxGeometry>
        </mxCell>
        <mxCell id="HTmOLv7qJEctIhOdHriU-38" value="" style="endArrow=classic;startArrow=classic;html=1;rounded=0;entryX=0;entryY=0.5;entryDx=0;entryDy=0;entryPerimeter=0;exitX=1;exitY=0.5;exitDx=0;exitDy=0;exitPerimeter=0;" edge="1" parent="1" source="7c3789c024ecab99-8" target="7c3789c024ecab99-54">
          <mxGeometry width="50" height="50" relative="1" as="geometry">
            <mxPoint x="1350" y="445" as="sourcePoint" />
            <mxPoint x="1400" y="395" as="targetPoint" />
          </mxGeometry>
        </mxCell>
        <mxCell id="HTmOLv7qJEctIhOdHriU-39" value="" style="endArrow=classic;startArrow=classic;html=1;rounded=0;exitX=1;exitY=0.5;exitDx=0;exitDy=0;entryX=0;entryY=0.5;entryDx=0;entryDy=0;entryPerimeter=0;" edge="1" parent="1" source="7c3789c024ecab99-78" target="7c3789c024ecab99-8">
          <mxGeometry width="50" height="50" relative="1" as="geometry">
            <mxPoint x="1260" y="460" as="sourcePoint" />
            <mxPoint x="1310" y="410" as="targetPoint" />
          </mxGeometry>
        </mxCell>
        <mxCell id="HTmOLv7qJEctIhOdHriU-40" value="&lt;font style=&quot;font-size: 24px;&quot;&gt;TCAM rule :将vlan4 的VID改为46&lt;/font&gt;" style="text;html=1;strokeColor=none;fillColor=none;align=center;verticalAlign=middle;whiteSpace=wrap;rounded=0;" vertex="1" parent="1">
          <mxGeometry x="1390" y="130" width="260" height="100" as="geometry" />
        </mxCell>
      </root>
    </mxGraphModel>
  </diagram>
</mxfile>
